<svg width="24" height="24" viewBox="0 0 24 24" fill="none" xmlns="http://www.w3.org/2000/svg">
<path d="M0.428571 0C0.314907 0 0.205898 0.0451853 0.125525 0.125558C0.0451526 0.205931 0 0.314907 0 0.428571V23.5714C0 23.6851 0.0451526 23.7941 0.125525 23.8745C0.205898 23.9549 0.314907 24 0.428571 24H23.5714C23.6851 24 23.7941 23.9549 23.8745 23.8745C23.9548 23.7941 24 23.6851 24 23.5714V0.428571C24 0.314907 23.9548 0.205931 23.8745 0.125558C23.7941 0.0451853 23.6851 0 23.5714 0H0.428571ZM0.857143 2.85714C0.857143 1.75257 1.75257 0.857143 2.85714 0.857143H21.1429C22.2474 0.857143 23.1429 1.75257 23.1429 2.85714V21.1429C23.1429 22.2474 22.2474 23.1429 21.1429 23.1429H2.85714C1.75257 23.1429 0.857143 22.2474 0.857143 21.1429V2.85714Z" fill="#0060A2"/>
<path fill-rule="evenodd" clip-rule="evenodd" d="M0.428558 3.42847V4.28561H23.5714V3.42847H0.428558Z" fill="#0060A2"/>
<path d="M2.57144 2.14293C2.57144 2.25659 2.52628 2.36562 2.44591 2.44599C2.36554 2.52637 2.25653 2.5715 2.14287 2.5715C2.0292 2.5715 1.92019 2.52637 1.83982 2.44599C1.75945 2.36562 1.71429 2.25659 1.71429 2.14293C1.71429 2.02926 1.75945 1.92029 1.83982 1.83991C1.92019 1.75954 2.0292 1.71436 2.14287 1.71436C2.25653 1.71436 2.36554 1.75954 2.44591 1.83991C2.52628 1.92029 2.57144 2.02926 2.57144 2.14293ZM4.28572 2.14293C4.28572 2.25659 4.24057 2.36562 4.1602 2.44599C4.07982 2.52637 3.97082 2.5715 3.85715 2.5715C3.74349 2.5715 3.63448 2.52637 3.55411 2.44599C3.47373 2.36562 3.42858 2.25659 3.42858 2.14293C3.42858 2.02926 3.47373 1.92029 3.55411 1.83991C3.63448 1.75954 3.74349 1.71436 3.85715 1.71436C3.97082 1.71436 4.07982 1.75954 4.1602 1.83991C4.24057 1.92029 4.28572 2.02926 4.28572 2.14293ZM6.00001 2.14293C6.00001 2.25659 5.95486 2.36562 5.87448 2.44599C5.79411 2.52637 5.6851 2.5715 5.57144 2.5715C5.45777 2.5715 5.34876 2.52637 5.26839 2.44599C5.18802 2.36562 5.14287 2.25659 5.14287 2.14293C5.14287 2.02926 5.18802 1.92029 5.26839 1.83991C5.34876 1.75954 5.45777 1.71436 5.57144 1.71436C5.6851 1.71436 5.79411 1.75954 5.87448 1.83991C5.95486 1.92029 6.00001 2.02926 6.00001 2.14293Z" fill="#0060A2"/>
<path d="M3.00001 6C2.88635 6 2.77734 6.04519 2.69697 6.12556C2.61659 6.20593 2.57144 6.31491 2.57144 6.42857V12.4286C2.57144 12.5422 2.61659 12.6513 2.69697 12.7316C2.77734 12.812 2.88635 12.8571 3.00001 12.8571H9.00001C9.11368 12.8571 9.22269 12.812 9.30306 12.7316C9.38343 12.6513 9.42858 12.5422 9.42858 12.4286V6.42857C9.42858 6.31491 9.38343 6.20593 9.30306 6.12556C9.22269 6.04519 9.11368 6 9.00001 6H3.00001ZM3.42858 6.85714H8.57144V12H3.42858V6.85714Z" fill="#0060A2"/>
<path fill-rule="evenodd" clip-rule="evenodd" d="M2.57144 13.7143V14.5714H8.57144V13.7143H2.57144ZM2.57144 15.4286V16.2857H6.00001V15.4286H2.57144ZM10.2857 6V6.85714H14.5714V6H10.2857ZM10.2857 7.71429V8.57143H21.4286V7.71429H10.2857ZM10.2857 9.42857V10.2857H19.7143V9.42857H10.2857ZM10.2857 11.1429V12H19.7143V11.1429H10.2857ZM10.2857 12.8571V13.7143H19.7143V12.8571H10.2857ZM10.2857 14.5714V15.4286H13.7143V14.5714H10.2857Z" fill="#0060A2"/>
<path d="M8.14286 18C7.43829 18 6.85715 18.5811 6.85715 19.2857V20.1429C6.85715 20.8474 7.43829 21.4286 8.14286 21.4286H10.7143C11.4189 21.4286 12 20.8474 12 20.1429V19.2857C12 18.5811 11.4189 18 10.7143 18H8.14286ZM8.14286 18.8571H10.7143C10.9594 18.8571 11.1429 19.0406 11.1429 19.2857V20.1429C11.1429 20.388 10.9594 20.5714 10.7143 20.5714H8.14286C8.0862 20.5728 8.02983 20.5628 7.9772 20.5417C7.92456 20.5207 7.87676 20.4891 7.83668 20.4491C7.7966 20.409 7.76508 20.3612 7.74404 20.3085C7.723 20.2559 7.71288 20.1995 7.71429 20.1429V19.2857C7.71429 19.0406 7.89772 18.8571 8.14286 18.8571ZM14.1429 18C13.4383 18 12.8571 18.5811 12.8571 19.2857V20.1429C12.8571 20.8474 13.4383 21.4286 14.1429 21.4286H16.7143C17.4189 21.4286 18 20.8474 18 20.1429V19.2857C18 18.5811 17.4189 18 16.7143 18H14.1429ZM14.1429 18.8571H16.7143C16.9594 18.8571 17.1429 19.0406 17.1429 19.2857V20.1429C17.1429 20.388 16.9594 20.5714 16.7143 20.5714H14.1429C14.0862 20.5728 14.0298 20.5628 13.9772 20.5417C13.9246 20.5207 13.8768 20.4891 13.8367 20.4491C13.7966 20.409 13.7651 20.3612 13.744 20.3085C13.723 20.2559 13.7129 20.1995 13.7143 20.1429V19.2857C13.7143 19.0406 13.8977 18.8571 14.1429 18.8571Z" fill="#0060A2"/>
</svg>
