<svg width="24" height="27" viewBox="0 0 24 27" fill="none" xmlns="http://www.w3.org/2000/svg">
<path d="M0.428571 0C0.314907 0 0.205898 0.0496905 0.125525 0.138077C0.0451526 0.226463 0 0.346305 0 0.471302V25.9216C0 26.0466 0.0451526 26.1665 0.125525 26.2549C0.205898 26.3433 0.314907 26.3929 0.428571 26.3929H23.5714C23.6851 26.3929 23.7941 26.3433 23.8745 26.2549C23.9548 26.1665 24 26.0466 24 25.9216V0.471302C24 0.346305 23.9548 0.226463 23.8745 0.138077C23.7941 0.0496905 23.6851 0 23.5714 0H0.428571ZM0.857143 2.9426C0.857143 1.83803 1.75257 0.942603 2.85714 0.942603H21.1429C22.2474 0.942603 23.1429 1.83803 23.1429 2.9426V23.4503C23.1429 24.5549 22.2474 25.4503 21.1429 25.4503H2.85714C1.75257 25.4503 0.857143 24.5549 0.857143 23.4503V2.9426Z" fill="white"/>
<path fill-rule="evenodd" clip-rule="evenodd" d="M0.428558 3.77036V4.71296H23.5714V3.77036H0.428558Z" fill="white"/>
<path d="M2.57144 2.35646C2.57144 2.48146 2.52628 2.60136 2.44591 2.68975C2.36554 2.77813 2.25653 2.82777 2.14287 2.82777C2.0292 2.82777 1.92019 2.77813 1.83982 2.68975C1.75945 2.60136 1.71429 2.48146 1.71429 2.35646C1.71429 2.23147 1.75945 2.11163 1.83982 2.02324C1.92019 1.93485 2.0292 1.88516 2.14287 1.88516C2.25653 1.88516 2.36554 1.93485 2.44591 2.02324C2.52628 2.11163 2.57144 2.23147 2.57144 2.35646ZM4.28572 2.35646C4.28572 2.48146 4.24057 2.60136 4.1602 2.68975C4.07982 2.77813 3.97082 2.82777 3.85715 2.82777C3.74349 2.82777 3.63448 2.77813 3.55411 2.68975C3.47373 2.60136 3.42858 2.48146 3.42858 2.35646C3.42858 2.23147 3.47373 2.11163 3.55411 2.02324C3.63448 1.93485 3.74349 1.88516 3.85715 1.88516C3.97082 1.88516 4.07982 1.93485 4.1602 2.02324C4.24057 2.11163 4.28572 2.23147 4.28572 2.35646ZM6.00001 2.35646C6.00001 2.48146 5.95486 2.60136 5.87448 2.68975C5.79411 2.77813 5.6851 2.82777 5.57144 2.82777C5.45777 2.82777 5.34876 2.77813 5.26839 2.68975C5.18802 2.60136 5.14287 2.48146 5.14287 2.35646C5.14287 2.23147 5.18802 2.11163 5.26839 2.02324C5.34876 1.93485 5.45777 1.88516 5.57144 1.88516C5.6851 1.88516 5.79411 1.93485 5.87448 2.02324C5.95486 2.11163 6.00001 2.23147 6.00001 2.35646Z" fill="white"/>
<path d="M3.00001 6.59818C2.88635 6.59818 2.77734 6.64787 2.69697 6.73625C2.61659 6.82464 2.57144 6.94448 2.57144 7.06948V13.6677C2.57144 13.7927 2.61659 13.9126 2.69697 14.001C2.77734 14.0894 2.88635 14.139 3.00001 14.139H9.00001C9.11368 14.139 9.22269 14.0894 9.30306 14.001C9.38343 13.9126 9.42858 13.7927 9.42858 13.6677V7.06948C9.42858 6.94448 9.38343 6.82464 9.30306 6.73625C9.22269 6.64787 9.11368 6.59818 9.00001 6.59818H3.00001ZM3.42858 7.54078H8.57144V13.1964H3.42858V7.54078Z" fill="white"/>
<path fill-rule="evenodd" clip-rule="evenodd" d="M2.57144 15.0816V16.0242H8.57144V15.0816H2.57144ZM2.57144 16.9668V17.9094H6.00001V16.9668H2.57144ZM10.2857 6.59818V7.54078H14.5714V6.59818H10.2857ZM10.2857 8.48338V9.42598H21.4286V8.48338H10.2857ZM10.2857 10.3686V11.3112H19.7143V10.3686H10.2857ZM10.2857 12.2538V13.1964H19.7143V12.2538H10.2857ZM10.2857 14.139V15.0816H19.7143V14.139H10.2857ZM10.2857 16.0242V16.9668H13.7143V16.0242H10.2857Z" fill="white"/>
<path d="M8.14286 19.7946C7.43829 19.7946 6.85715 20.4337 6.85715 21.2085V22.1511C6.85715 22.9259 7.43829 23.565 8.14286 23.565H10.7143C11.4189 23.565 12 22.9259 12 22.1511V21.2085C12 20.4337 11.4189 19.7946 10.7143 19.7946H8.14286ZM8.14286 20.7372H10.7143C10.9594 20.7372 11.1429 20.9389 11.1429 21.2085V22.1511C11.1429 22.4207 10.9594 22.6224 10.7143 22.6224H8.14286C8.0862 22.624 8.02983 22.6129 7.9772 22.5897C7.92456 22.5666 7.87676 22.5319 7.83668 22.4879C7.7966 22.4438 7.76508 22.3912 7.74404 22.3333C7.723 22.2754 7.71288 22.2134 7.71429 22.1511V21.2085C7.71429 20.9389 7.89772 20.7372 8.14286 20.7372ZM14.1429 19.7946C13.4383 19.7946 12.8571 20.4337 12.8571 21.2085V22.1511C12.8571 22.9259 13.4383 23.565 14.1429 23.565H16.7143C17.4189 23.565 18 22.9259 18 22.1511V21.2085C18 20.4337 17.4189 19.7946 16.7143 19.7946H14.1429ZM14.1429 20.7372H16.7143C16.9594 20.7372 17.1429 20.9389 17.1429 21.2085V22.1511C17.1429 22.4207 16.9594 22.6224 16.7143 22.6224H14.1429C14.0862 22.624 14.0298 22.6129 13.9772 22.5897C13.9246 22.5666 13.8768 22.5319 13.8367 22.4879C13.7966 22.4438 13.7651 22.3912 13.744 22.3333C13.723 22.2754 13.7129 22.2134 13.7143 22.1511V21.2085C13.7143 20.9389 13.8977 20.7372 14.1429 20.7372Z" fill="white"/>
</svg>
