<svg width="36" height="27" viewBox="0 0 36 27" fill="none" xmlns="http://www.w3.org/2000/svg">
<path id="Vector" d="M35.0671 3.66923H32.2133V2.85385C32.2133 1.28015 30.9331 0 29.3594 0C27.7857 0 26.5056 1.28015 26.5056 2.85385V3.66923H23.244V2.85385C23.244 1.28015 21.9639 0 20.3902 0C18.8165 0 17.5363 1.28015 17.5363 2.85385V3.66923H14.2748V2.85385C14.2748 1.28015 12.9947 0 11.421 0C9.84727 0 8.56711 1.28015 8.56711 2.85385V3.66923H5.71327C5.69696 3.66923 5.68473 3.67331 5.66842 3.67331C5.63581 3.67331 5.60727 3.67738 5.57465 3.68146C5.55019 3.68554 5.52981 3.68962 5.50534 3.69777L5.42381 3.72223C5.39935 3.73038 5.37896 3.74262 5.3545 3.75077C5.33004 3.763 5.30558 3.77523 5.28111 3.79154C5.26073 3.80377 5.24035 3.82008 5.21996 3.83231C5.19958 3.84862 5.17511 3.86492 5.15473 3.88531L5.10173 3.93831C5.08542 3.95869 5.06504 3.97908 5.04873 3.99946C5.03242 4.01985 5.02019 4.04431 5.00796 4.06469C4.99573 4.08508 4.9835 4.10954 4.97127 4.134C4.95904 4.16254 4.94681 4.187 4.93865 4.21554C4.93458 4.23185 4.92642 4.24408 4.92235 4.26039L0.0300372 21.7912C-0.0392704 22.0358 0.0137295 22.3008 0.164576 22.5046C0.327653 22.7125 0.564114 22.8308 0.82096 22.8308H4.89788V25.6846C4.89788 26.1331 5.26481 26.5 5.71327 26.5H35.0671C35.5156 26.5 35.8825 26.1331 35.8825 25.6846V4.48462C35.8825 4.03615 35.5156 3.66923 35.0671 3.66923ZM28.1363 2.85385C28.1363 2.18115 28.6867 1.63077 29.3594 1.63077C30.0321 1.63077 30.5825 2.18115 30.5825 2.85385V3.66923H28.1363V2.85385ZM19.1671 2.85385C19.1671 2.18115 19.7175 1.63077 20.3902 1.63077C21.0629 1.63077 21.6133 2.18115 21.6133 2.85385V3.66923H19.1671V2.85385ZM10.1979 2.85385C10.1979 2.18115 10.7483 1.63077 11.421 1.63077C12.0937 1.63077 12.644 2.18115 12.644 2.85385V3.66923H10.1979V2.85385ZM1.89319 21.2L4.89788 10.441V21.2H1.89319ZM34.2517 24.8692H6.52865V5.3H12.644V6.93077C12.644 7.37923 13.011 7.74615 13.4594 7.74615C13.9079 7.74615 14.2748 7.37923 14.2748 6.93077V5.3H21.6133V6.93077C21.6133 7.37923 21.9802 7.74615 22.4287 7.74615C22.8771 7.74615 23.244 7.37923 23.244 6.93077V5.3H30.5825V6.93077C30.5825 7.37923 30.9494 7.74615 31.3979 7.74615C31.8463 7.74615 32.2133 7.37923 32.2133 6.93077V5.3H34.2517V24.8692ZM16.297 12.0718C16.3092 12.1248 16.3133 12.1778 16.3133 12.2308C16.3133 12.2838 16.3092 12.3368 16.297 12.3898C16.2888 12.4428 16.2725 12.4917 16.2521 12.5447C16.2317 12.5936 16.2032 12.6385 16.1747 12.6833C16.1461 12.7282 16.1135 12.7689 16.0727 12.8056C16.036 12.8464 15.9953 12.879 15.9504 12.9075C15.9056 12.9402 15.8607 12.9646 15.8077 12.985C15.7588 13.0054 15.7099 13.0217 15.6569 13.0298C15.6039 13.0421 15.5509 13.0462 15.4979 13.0462C15.4449 13.0462 15.3919 13.0421 15.3389 13.0298C15.2859 13.0217 15.2329 13.0054 15.184 12.985C15.135 12.9646 15.0902 12.9402 15.0453 12.9075C15.0005 12.879 14.9597 12.8464 14.923 12.8056C14.8823 12.7689 14.8497 12.7282 14.8211 12.6833C14.7926 12.6385 14.764 12.5936 14.7437 12.5447C14.7233 12.4917 14.707 12.4428 14.6988 12.3898C14.6866 12.3368 14.6825 12.2838 14.6825 12.2308C14.6825 12.1778 14.6866 12.1248 14.6988 12.0718C14.707 12.0188 14.7233 11.9698 14.7437 11.9209C14.764 11.8679 14.7926 11.8231 14.8211 11.7782C14.8497 11.7334 14.8823 11.6926 14.923 11.6559C14.9597 11.6152 15.0005 11.5825 15.0453 11.554C15.0902 11.5255 15.135 11.4969 15.184 11.4765C15.237 11.4562 15.2859 11.4439 15.3389 11.4317C15.5998 11.3787 15.8852 11.4643 16.0727 11.6559C16.1135 11.6926 16.1461 11.7334 16.1747 11.7782C16.2032 11.8231 16.2317 11.8679 16.2521 11.9209C16.2725 11.9698 16.2888 12.0188 16.297 12.0718ZM21.1893 12.0718C21.2162 12.2031 21.2099 12.3391 21.1707 12.4673C21.1315 12.5955 21.0608 12.7118 20.965 12.8056C20.9283 12.8464 20.8876 12.879 20.8427 12.9075C20.7979 12.9361 20.753 12.9646 20.7 12.985C20.6511 13.0054 20.6022 13.0217 20.5492 13.0298C20.4179 13.0568 20.2819 13.0504 20.1537 13.0113C20.0255 12.9721 19.9092 12.9014 19.8153 12.8056C19.7196 12.7118 19.6489 12.5955 19.6097 12.4673C19.5705 12.3391 19.5641 12.2031 19.5911 12.0718C19.5993 12.0188 19.6156 11.9698 19.636 11.9168C19.6563 11.8679 19.6849 11.8231 19.7134 11.7782C19.742 11.7334 19.7746 11.6926 19.8153 11.6559C19.852 11.6152 19.8928 11.5825 19.9377 11.554C19.9825 11.5255 20.0273 11.4969 20.0763 11.4765C20.1293 11.4562 20.1782 11.4439 20.2312 11.4317C20.3885 11.4013 20.5513 11.4169 20.7 11.4765C20.753 11.4969 20.7979 11.5255 20.8427 11.554C20.8876 11.5825 20.9283 11.6152 20.965 11.6559C21.0058 11.6926 21.0384 11.7334 21.067 11.7782C21.0955 11.8231 21.124 11.8679 21.1444 11.9168C21.1648 11.9698 21.1811 12.0188 21.1893 12.0718ZM25.8573 11.6559C26.0123 11.8068 26.0979 12.0147 26.0979 12.2308C26.0979 12.4468 26.0123 12.6548 25.8573 12.8056C25.7065 12.9605 25.4986 13.0462 25.2825 13.0462C25.0664 13.0462 24.8585 12.9605 24.7077 12.8056C24.5527 12.6548 24.4671 12.4468 24.4671 12.2308C24.4671 12.0147 24.5527 11.8068 24.7077 11.6559C25.0093 11.3502 25.5557 11.3502 25.8573 11.6559ZM30.9739 12.0718C30.9861 12.1248 30.9902 12.1778 30.9902 12.2308C30.9902 12.2838 30.9861 12.3368 30.9739 12.3898C30.9657 12.4428 30.9494 12.4917 30.929 12.5406C30.9087 12.5936 30.8801 12.6385 30.8516 12.6833C30.823 12.7282 30.7904 12.7689 30.7497 12.8056C30.713 12.8464 30.6722 12.879 30.6273 12.9075C30.5825 12.9361 30.5377 12.9646 30.4887 12.985C30.4357 13.0054 30.3868 13.0217 30.3338 13.0298C30.2025 13.0568 30.0665 13.0504 29.9383 13.0113C29.8101 12.9721 29.6938 12.9014 29.6 12.8056C29.5592 12.7689 29.5266 12.7282 29.498 12.6833C29.4695 12.6385 29.441 12.5936 29.4206 12.5406C29.4002 12.4917 29.3839 12.4428 29.3757 12.3898C29.3488 12.2585 29.3552 12.1225 29.3943 11.9943C29.4335 11.8661 29.5042 11.7497 29.6 11.6559C29.6367 11.6152 29.6774 11.5825 29.7223 11.554C29.7671 11.5255 29.812 11.4969 29.8609 11.4765C29.9098 11.4562 29.9628 11.4398 30.0158 11.4317C30.1177 11.4113 30.2278 11.4113 30.3338 11.4317C30.3868 11.4398 30.4357 11.4562 30.4887 11.4765C30.5377 11.4969 30.5825 11.5255 30.6273 11.554C30.6722 11.5825 30.713 11.6152 30.7497 11.6559C30.7904 11.6926 30.823 11.7334 30.8516 11.7782C30.8801 11.8231 30.9087 11.8679 30.929 11.9209C30.9494 11.9698 30.9657 12.0188 30.9739 12.0718ZM11.4047 16.1487C11.4283 16.2669 11.4254 16.3889 11.3962 16.5058C11.367 16.6228 11.3122 16.7318 11.2358 16.825C11.1593 16.9183 11.0631 16.9933 10.9542 17.0449C10.8452 17.0964 10.7261 17.1231 10.6056 17.1231C10.3854 17.1231 10.1816 17.0375 10.0307 16.8825C9.87581 16.7317 9.79019 16.5238 9.79019 16.3077C9.79019 16.0916 9.87581 15.8837 10.0307 15.7328C10.0674 15.6921 10.1082 15.6595 10.153 15.6309C10.1979 15.5983 10.2427 15.5738 10.2957 15.5535C10.4445 15.4938 10.6072 15.4782 10.7646 15.5086C10.8176 15.5168 10.8706 15.5331 10.9195 15.5535C10.9684 15.5738 11.0133 15.5983 11.0581 15.6309C11.1484 15.6883 11.225 15.7649 11.2823 15.8552C11.315 15.9 11.3394 15.9448 11.3598 15.9938C11.3802 16.0427 11.3965 16.0957 11.4047 16.1487ZM16.0727 15.7328C16.2277 15.8837 16.3133 16.0916 16.3133 16.3077C16.3133 16.5238 16.2277 16.7317 16.0727 16.8825C15.9219 17.0375 15.714 17.1231 15.4979 17.1231C15.2818 17.1231 15.0739 17.0375 14.923 16.8825C14.8273 16.7887 14.7566 16.6724 14.7174 16.5442C14.6782 16.416 14.6718 16.28 14.6988 16.1487C14.711 16.0957 14.7233 16.0427 14.7437 15.9938C14.764 15.9448 14.7926 15.9 14.8211 15.8552C14.8497 15.8103 14.8823 15.7695 14.923 15.7328C14.9597 15.6921 15.0005 15.6595 15.0453 15.6309C15.0902 15.5983 15.135 15.5738 15.184 15.5535C15.237 15.5331 15.2859 15.5168 15.3389 15.5086C15.4449 15.4882 15.5509 15.4882 15.6569 15.5086C15.7099 15.5168 15.7588 15.5331 15.8118 15.5535C15.8607 15.5738 15.9056 15.5983 15.9504 15.6309C15.9953 15.6595 16.036 15.6921 16.0727 15.7328ZM20.965 15.7328C21.12 15.8837 21.2056 16.0916 21.2056 16.3077C21.2056 16.5238 21.12 16.7317 20.965 16.8825C20.8142 17.0375 20.6103 17.1231 20.3902 17.1231C20.17 17.1231 19.9662 17.0375 19.8153 16.8825C19.7196 16.7887 19.6489 16.6724 19.6097 16.5442C19.5705 16.416 19.5641 16.28 19.5911 16.1487C19.5993 16.0957 19.6156 16.0427 19.636 15.9938C19.6563 15.9448 19.6808 15.9 19.7134 15.8552C19.742 15.8103 19.7746 15.7695 19.8153 15.7328C19.852 15.6921 19.8928 15.6595 19.9377 15.6309C19.9825 15.5983 20.0273 15.5738 20.0763 15.5535C20.1252 15.5331 20.1782 15.5168 20.2312 15.5086C20.4962 15.4556 20.7775 15.5412 20.965 15.7328ZM25.8573 15.7328C25.9531 15.8267 26.0238 15.943 26.063 16.0712C26.1022 16.1994 26.1085 16.3354 26.0816 16.4667C26.0734 16.5197 26.0571 16.5727 26.0367 16.6216C26.0163 16.6705 25.9919 16.7154 25.9593 16.7602C25.9307 16.8051 25.8981 16.8458 25.8573 16.8825C25.8207 16.9233 25.7799 16.9559 25.735 16.9845C25.6902 17.0171 25.6413 17.0415 25.5964 17.0619C25.5475 17.0823 25.4945 17.0986 25.4415 17.1068C25.2829 17.1384 25.1184 17.1228 24.9686 17.0619C24.8707 17.0212 24.781 16.96 24.7077 16.8825C24.6669 16.8458 24.6343 16.8051 24.6017 16.7602C24.5731 16.7154 24.5487 16.6705 24.5283 16.6216C24.5079 16.5727 24.4916 16.5197 24.4834 16.4667C24.4712 16.4178 24.4671 16.3607 24.4671 16.3077C24.4671 16.2547 24.4712 16.2017 24.4834 16.1487C24.4916 16.0957 24.5079 16.0427 24.5283 15.9938C24.5487 15.9448 24.5731 15.9 24.6057 15.8552C24.6343 15.8103 24.6669 15.7695 24.7077 15.7328C24.8952 15.5412 25.1765 15.4515 25.4415 15.5086C25.4945 15.5168 25.5434 15.5331 25.5923 15.5535C25.6453 15.5738 25.6902 15.6024 25.735 15.6309C25.7799 15.6595 25.8207 15.6921 25.8573 15.7328ZM30.7497 15.7328C30.8454 15.8267 30.9161 15.943 30.9553 16.0712C30.9945 16.1994 31.0009 16.3354 30.9739 16.4667C30.9657 16.5197 30.9494 16.5727 30.929 16.6216C30.9087 16.6705 30.8842 16.7154 30.8516 16.7602C30.823 16.8051 30.7904 16.8458 30.7497 16.8825C30.713 16.9233 30.6722 16.9559 30.6273 16.9845C30.5825 17.0171 30.5377 17.0415 30.4887 17.0619C30.4398 17.0823 30.3868 17.0986 30.3338 17.1068C30.1752 17.1384 30.0108 17.1228 29.8609 17.0619C29.763 17.0212 29.6733 16.96 29.6 16.8825C29.5592 16.8458 29.5266 16.8051 29.498 16.7602C29.4654 16.7154 29.441 16.6705 29.4206 16.6216C29.4002 16.5727 29.3839 16.5197 29.3757 16.4667C29.3635 16.4137 29.3594 16.3607 29.3594 16.3077C29.3594 16.2547 29.3635 16.2017 29.3757 16.1487C29.3839 16.0957 29.4002 16.0427 29.4206 15.9938C29.441 15.9448 29.4695 15.9 29.498 15.8552C29.5266 15.8103 29.5592 15.7695 29.6 15.7328C29.7875 15.5412 30.0688 15.4556 30.3338 15.5086C30.3868 15.5168 30.4357 15.5331 30.4887 15.5535C30.5377 15.5738 30.5825 15.6024 30.6273 15.6309C30.6722 15.6595 30.713 15.6921 30.7497 15.7328ZM11.1845 19.8098C11.3353 19.9606 11.421 20.1685 11.421 20.3846C11.421 20.6007 11.3353 20.8086 11.1845 20.9595C11.107 21.0369 11.0173 21.0981 10.9195 21.1388C10.8176 21.1796 10.7157 21.2 10.6056 21.2C10.3895 21.2 10.1816 21.1144 10.0307 20.9595C9.87581 20.8086 9.79019 20.6007 9.79019 20.3846C9.79019 20.1685 9.87581 19.9606 10.0307 19.8098C10.3324 19.504 10.8787 19.504 11.1845 19.8098ZM16.0727 19.8098C16.2277 19.9606 16.3133 20.1685 16.3133 20.3846C16.3133 20.6007 16.2277 20.8086 16.0727 20.9595C15.9219 21.1144 15.718 21.2 15.4979 21.2C15.2777 21.2 15.0739 21.1144 14.923 20.9595C14.7681 20.8086 14.6825 20.6007 14.6825 20.3846C14.6825 20.1685 14.7681 19.9606 14.923 19.8098C15.1106 19.6182 15.3919 19.5285 15.6569 19.5855C15.7099 19.5937 15.7588 19.61 15.8118 19.6304C15.8607 19.6508 15.9056 19.6793 15.9504 19.7078C15.9953 19.7364 16.036 19.769 16.0727 19.8098ZM20.965 19.8098C21.12 19.9606 21.2056 20.1685 21.2056 20.3846C21.2056 20.4947 21.1852 20.5966 21.1444 20.6985C21.1037 20.7964 21.0425 20.8861 20.965 20.9595C20.9283 21.0002 20.8876 21.0328 20.8427 21.0614C20.7979 21.094 20.749 21.1185 20.7041 21.1388C20.6552 21.1592 20.6022 21.1755 20.5492 21.1837C20.3906 21.2153 20.2261 21.1997 20.0763 21.1388C19.9784 21.0981 19.8887 21.0369 19.8153 20.9595C19.6604 20.8086 19.5748 20.6007 19.5748 20.3846C19.5748 20.1685 19.6604 19.9606 19.8153 19.8098C19.852 19.769 19.8928 19.7364 19.9377 19.7078C19.9825 19.6793 20.0273 19.6508 20.0763 19.6304C20.1252 19.61 20.1782 19.5937 20.2312 19.5855C20.4962 19.5325 20.7775 19.6182 20.965 19.8098Z" fill="#F1729E"/>
</svg>
