<svg width="19" height="21" viewBox="0 0 19 21" fill="none" xmlns="http://www.w3.org/2000/svg">
<path d="M12.8186 17.229H3.08416C2.92353 17.229 2.79502 17.1592 2.73077 17.0195C2.63439 16.8798 2.63439 16.7052 2.69864 16.5655L3.53394 14.2609L2.69864 5.67087H0V4.69315H3.08416C3.30905 4.69315 3.50181 4.86774 3.53394 5.11217L4.43348 14.226C4.43348 14.2958 4.43348 14.3657 4.40136 14.4704L3.75882 16.2164H12.8186V17.229Z" fill="#0060A2"/>
<path d="M4.08009 14.8196L3.88733 13.8768L14.1357 11.5721V7.62632H3.53394V6.64859H14.5855C14.8425 6.64859 15.0353 6.8581 15.0353 7.13745V11.9563C15.0353 12.2007 14.8747 12.3753 14.6819 12.4102L4.08009 14.8196ZM13.2683 20.1273C12.3045 20.1273 11.5014 19.2543 11.5014 18.2067C11.5014 17.1592 12.3045 16.2862 13.2683 16.2862C14.2321 16.2862 15.0353 17.1592 15.0353 18.2067C15.0353 19.2543 14.2321 20.1273 13.2683 20.1273ZM13.2683 17.229C12.7864 17.229 12.3688 17.648 12.3688 18.2067C12.3688 18.7654 12.7543 19.1844 13.2683 19.1844C13.7824 19.1844 14.1679 18.7654 14.1679 18.2067C14.1679 17.648 13.7502 17.229 13.2683 17.229ZM2.66652 20.1273C1.70271 20.1273 0.899548 19.2543 0.899548 18.2067C0.899548 17.1592 1.70271 16.2862 2.66652 16.2862C3.63032 16.2862 4.43348 17.1592 4.43348 18.2067C4.43348 19.2543 3.63032 20.1273 2.66652 20.1273ZM2.66652 17.229C2.18462 17.229 1.76697 17.648 1.76697 18.2067C1.76697 18.7654 2.15249 19.1844 2.66652 19.1844C3.18054 19.1844 3.56606 18.7654 3.56606 18.2067C3.56606 17.648 3.14842 17.229 2.66652 17.229Z" fill="#0060A2"/>
<circle cx="15" cy="4" r="4" fill="#E25F5A"/>
</svg>
